<svg id="icons" xmlns="http://www.w3.org/2000/svg" xmlns:xlink="http://www.w3.org/1999/xlink" viewBox="0 0 538.47 149.99"><defs><style>.cls-1{fill:url(#radial-gradient);}.cls-2,.cls-3{fill:#00aeef;}.cls-2{opacity:0.29;}.cls-4{opacity:0.45;}.cls-14,.cls-5{fill:#27aae1;}.cls-6{fill:#65308f;}.cls-7{fill:#faaf43;}.cls-8{fill:#8cc540;}.cls-9{fill:#be202e;}.cls-10,.cls-27{fill:#1b75bc;}.cls-11{fill:#039447;}.cls-12{fill:#f15b2a;}.cls-13,.cls-16,.cls-21{fill:#fff;}.cls-13{stroke:#27aae1;stroke-width:1.24px;}.cls-13,.cls-21,.cls-27{stroke-miterlimit:10;}.cls-14{font-size:8.67px;font-family:ProximaNova-Semibold, Proxima Nova;font-weight:700;}.cls-15{fill:#4d3391;}.cls-17{fill:#faa42c;}.cls-18{fill:#78b342;}.cls-19{fill:#30485e;}.cls-20{fill:none;}.cls-21{stroke:#30485e;stroke-width:1.16px;}.cls-22{fill:#d12747;}.cls-23{fill:#f3b540;}.cls-24{fill:#51a56a;}.cls-25{fill:#02a6d1;}.cls-26{fill:#4f79bc;}.cls-27{stroke:#231f20;stroke-width:0.46px;}</style><radialGradient id="radial-gradient" cx="471.24" cy="68.08" r="450.86" gradientUnits="userSpaceOnUse"><stop offset="0" stop-color="#fff"/><stop offset="0.06" stop-color="#fbfefe"/><stop offset="0.12" stop-color="#f0f9fb"/><stop offset="0.17" stop-color="#def2f7"/><stop offset="0.23" stop-color="#c4e8f0"/><stop offset="0.28" stop-color="#a2dce7"/><stop offset="0.32" stop-color="#81cfdf"/><stop offset="0.54" stop-color="#00afed"/><stop offset="0.84" stop-color="#1b75bc"/></radialGradient></defs><title>Innovation.gov Icons</title><circle class="cls-1" cx="471.24" cy="68.08" r="450.86"/><path class="cls-2" d="M487.33,102.74l13-12.48-.07,0-2.72-25.33v0h0l.36-14.43h-.07v-.07l-11.09-.29,1.18-13.94-9.53,5-3.49-14.76-.07,0,0-.08-22.46,4.57,10.36-8.52-.09-.11-10.48,8.62-.88-9.71h-.14l.87,9.58-6.56-9.18-.06,0-.07,0-6.85,21.59L426,26.83l0,0-.07,0-4.17,12.61-7.18-3.14-.06.14,7,3.06-10.82,1.1v.14l11-1.12-2.43,13.68-11.78-8.08,0,.06h-.07l-1.82,16.43-.07,0,.05,0-5.88,17.1,0,.06,9.87,4.43-7.19,6.86.1.11,7.18-6.85h0l5.72,20.18h-.14l.17.12,0,.15.05-.09,18.91,12.73-10.6.22V117l10.75-.23L434,122h.08v.07l17.72-2.59v.07l.08-.07,10.69,3.93.06,0L471.46,104l2.09,15.64.14,0L471.6,103.9l11.95,9.69Zm-52.67,13.77-.4-12.91h.08l0,0,17.5-3.63-8.89,9ZM444,78.4v0L423.54,89.32l22.95-21.77L444.05,78.4ZM423.15,89.49,421,71.78l25.35-4.33ZM419.4,53.56l27,13.74L421,71.64Zm42.73-9.62L446.64,67.17l-8.09-23.72Zm-2.75,33.31,20.61-8-1.33,15.56Zm-.08.13,19.22,7.53L464,90.46Zm7-17.67,13.63,9.42-20.61,8Zm-19.5,7.64,19.34-7.63-7,17.42-12.36-9.76h0Zm0-.17,15.42-23.13,3.94,15.5ZM466.4,59.6l11.13-5.83L480,69Zm-.1-.11L462.38,44l15.06,9.63Zm-19.64,8L459,77.2,444.2,78.39Zm12.42,9.86L452,99.61l-7.82-21.08Zm.11.15,4.66,13-11.68,9.1Zm-7,22.31,11.72-9.13,7.44,13Zm19.29,3.77-7.45-13L478.6,85Zm8.64-34.27,11.79,10.33L478.81,84.8Zm0-.17,6.45-18.68,5.34,29Zm6.6-18.66,10.59,14.45-5.27,14.46ZM480.1,68.85l-2.43-15.14,8.84-3.43Zm-2.43-15.3.7-12.1,8.14,8.68Zm-.15,0-15.06-9.62,15.77-2.55Zm-15.23-9.74-10-12.57,25.75,10ZM452,31.16l10.07,12.63-23.48-.48ZM438.41,43.51l8.08,23.68-27-13.75,18.84-9.92,0,.09ZM420.87,71.58l-15.1-9.81,13.49-8.21Zm0,.16L409.69,83.22l-4-21.29Zm-11.07,11.6L420.9,71.88,423,89.52l-13.24-6.17h0Zm34.3-4.77,7.84,21.14L423.28,89.63Zm7.69,21.25-17.54,3.63L423.31,89.79Zm.2.19-.12,19.18-8.76-10.14Zm-9,9.14,8.76,10.13-17-2.66Zm9.14-9.23,19.23,3.85L452,119.23Zm26.62-14.83,8.43,17.55-15.55,1Zm8.56,17.49L478.86,85,500,90.34ZM479,84.9l13-5.16,0,.18.08-.22.08,0-.05,0,5.25-14.4,2.69,25Zm7.82-34.66,10.94.28-.35,14.17Zm-.2-.28-.08-.1,0,.07-8.07-8.6.13,0-.1,0,9.24-4.87Zm-8.38-8.8L452.31,31.08l22.43-4.57ZM445.37,21.81l6.48,9.09h0l.12.16L438.6,43.14ZM426,27l12.27,16.23-16.39-3.75Zm-4.16,12.62,16.4,3.75-18.82,9.91Zm-14.33,5.78,11.68,8-13.47,8.19Zm-7.69,33.46,5.79-16.84,3.93,21.19h0ZM423,89.66l-.31.29.26-.13-7.48,13.75L409.76,83.5Zm.14.11L434,103.46l-18.49.23Zm11,13.83.4,12.93-18.86-12.7Zm.53,13.2h0v-.06l16.75,2.63-17.23,2.52Zm28,6.43-10.54-3.87L471.31,104Zm9.09-19.44,15.47-1-3.68,10.56Z"/><circle class="cls-3" cx="486.63" cy="50.16" r="0.64"/><circle class="cls-3" cx="478.18" cy="41.28" r="0.64"/><circle class="cls-3" cx="452.03" cy="31.05" r="0.64"/><circle class="cls-3" cx="419.47" cy="53.44" r="0.64"/><circle class="cls-3" cx="434.19" cy="103.53" r="0.64"/><circle class="cls-3" cx="443.06" cy="109.05" r="0.64"/><circle class="cls-3" cx="463.98" cy="90.53" r="0.64"/><circle class="cls-3" cx="409.75" cy="83.37" r="0.64"/><circle class="cls-3" cx="434.59" cy="116.67" r="0.64"/><circle class="cls-3" cx="477.59" cy="53.66" r="0.64"/><circle class="cls-3" cx="421.79" cy="39.56" r="0.64"/><g class="cls-4"><path class="cls-3" d="M451.24,125.64h0a.91.91,0,1,1,0-1.81.92.92,0,0,1,.92.91A.9.9,0,0,1,451.24,125.64Zm-5.79-.31h-.11l.1-.91-.11.91a.91.91,0,0,1,.18-1.81h0a.91.91,0,0,1-.1,1.81Zm11.56,0a.94.94,0,1,1,.13,0H457Zm-17.29-.94-.19,0h0a.91.91,0,1,1,1.12-.69A.92.92,0,0,1,439.72,124.38Zm23,0a.92.92,0,0,1-.89-.73.92.92,0,0,1,1.79-.4.91.91,0,0,1-.67,1.1h-.05Zm-28.6-1.57a.79.79,0,0,1-.3,0h0a.91.91,0,0,1,.62-1.71.91.91,0,0,1-.29,1.77Zm34.16,0A.91.91,0,0,1,468,121l0,0a.91.91,0,1,1,.59,1.72l-.29-.86.29.86A.87.87,0,0,1,468.3,122.74Zm-39.53-2.17a.82.82,0,0,1-.4-.1l.4-.81-.4.81a.9.9,0,0,1-.45-1.2.93.93,0,0,1,1.21-.45l0,0a.92.92,0,0,1,.42,1.22A.93.93,0,0,1,428.77,120.57Zm44.9-.06a.92.92,0,0,1-.83-.54.92.92,0,1,1,1.25.43l0,0A1,1,0,0,1,473.67,120.51Zm-50-2.75a.9.9,0,0,1-.47-.13l0,0a.91.91,0,1,1,1.26-.28A.9.9,0,0,1,423.68,117.76Zm55.07-.07a.91.91,0,0,1-.5-1.67l0,0a.91.91,0,1,1,1,1.54l-.48-.77.47.78A1,1,0,0,1,478.75,117.69ZM419,114.41a.89.89,0,0,1-.56-.2l0,0a.91.91,0,0,1,1.15-1.41.91.91,0,0,1-.56,1.63Zm64.52-.09a.91.91,0,0,1-.57-1.61h0a.91.91,0,0,1,1.15,1.41l-.58-.71.56.72A.86.86,0,0,1,483.47,114.32Zm-68.86-3.78a.93.93,0,0,1-.64-.26h0a.91.91,0,0,1,1.29-1.29.91.91,0,0,1,0,1.29A.9.9,0,0,1,414.61,110.54Zm73.18-.09a.93.93,0,0,1-.64-.26.92.92,0,0,1,1.29-1.3.9.9,0,0,1,0,1.28v0A.94.94,0,0,1,487.79,110.45Zm-77.06-4.23a.9.9,0,0,1-.7-.33v0a.91.91,0,1,1,1.28.15A.94.94,0,0,1,410.73,106.22Zm80.93-.1a.93.93,0,0,1-.59-.21.9.9,0,0,1-.11-1.27.91.91,0,1,1,1.43,1.12s0,0,0,0A.9.9,0,0,1,491.66,106.12Zm-84.29-4.62a.9.9,0,0,1-.77-.43l.77-.48-.77.48a.91.91,0,0,1,.26-1.26.92.92,0,0,1,1.26.27l0,0a.9.9,0,0,1-.29,1.25A.86.86,0,0,1,407.37,101.5Zm87.65-.11a.88.88,0,0,1-.49-.15.91.91,0,0,1-.28-1.25.93.93,0,0,1,1.26-.29.91.91,0,0,1,.29,1.24l0,0A.9.9,0,0,1,495,101.39Zm-90.47-5a.9.9,0,0,1-.81-.5l0,0a.91.91,0,1,1,1.64-.77.9.9,0,0,1-.4,1.22A1,1,0,0,1,404.55,96.43Zm93.28-.13A.9.9,0,0,1,497,95l0,0a.91.91,0,1,1,1.63.79l-.81-.4.81.4A.91.91,0,0,1,497.83,96.3Zm-95.52-5.23a.9.9,0,0,1-.85-.6v0a.91.91,0,1,1,1.16.57A.8.8,0,0,1,402.31,91.07Zm97.74-.13a1.06,1.06,0,0,1-.31,0,.92.92,0,0,1-.55-1.17.91.91,0,0,1,1.16-.56.9.9,0,0,1,.56,1.15v0A.9.9,0,0,1,500.05,90.94ZM400.7,85.5a.91.91,0,0,1-.88-.71l.88-.2-.89.2a.92.92,0,0,1,.68-1.1.91.91,0,0,1,1.09.67v0a.91.91,0,0,1-.69,1.09Zm100.95-.13-.19,0a.91.91,0,0,1-.7-1.08v0a.91.91,0,1,1,1.76.43l-.88-.22.88.22A.89.89,0,0,1,501.65,85.37Zm-101.93-5.6a.91.91,0,0,1-.9-.79v0a.91.91,0,1,1,1,.81Zm102.89-.13h-.08a.92.92,0,0,1-.83-1V78.6a.91.91,0,1,1,1.8.22l-.9-.11.9.11A.9.9,0,0,1,502.61,79.64ZM399.39,74a.9.9,0,0,1-.91-.9V73a.91.91,0,1,1,1.82,0v.11A.92.92,0,0,1,399.39,74Zm103.54-.14a.91.91,0,0,1,0-1.82.89.89,0,0,1,.9.9h0A.9.9,0,0,1,502.93,73.84ZM399.71,68.08h-.1a.91.91,0,0,1-.8-1l.9.1-.9-.11a.91.91,0,0,1,1.81.19v0A.9.9,0,0,1,399.71,68.08Zm102.89,0a.91.91,0,0,1-.9-.83.89.89,0,0,1,.79-1,.91.91,0,0,1,1,.8v0a.91.91,0,0,1-.83,1ZM400.68,62.36l-.2,0a.91.91,0,0,1-.69-1.09h0a.91.91,0,0,1,1.09-.69.9.9,0,0,1,.69,1.08v0A.91.91,0,0,1,400.68,62.36Zm100.95,0a.92.92,0,1,1,.88-1.14v0a.92.92,0,0,1-.7,1.08Zm-99.35-5.55a1.18,1.18,0,0,1-.31-.05.91.91,0,0,1-.54-1.17l.85.31-.85-.31a.91.91,0,0,1,1.72.59v0A.92.92,0,0,1,402.28,56.78Zm97.74,0a.92.92,0,0,1-.85-.59v0a.91.91,0,1,1,1.72-.59l-.86.29.86-.29a.92.92,0,0,1-.55,1.16A.85.85,0,0,1,500,56.75ZM404.5,51.42a.85.85,0,0,1-.4-.1.9.9,0,0,1-.41-1.21l.82.4-.82-.41a.91.91,0,0,1,1.65.78l0,0A.92.92,0,0,1,404.5,51.42Zm93.3,0a.93.93,0,0,1-.83-.53.91.91,0,0,1,1.64-.8v0a.92.92,0,0,1-.44,1.21A1,1,0,0,1,497.8,51.39Zm-90.48-5a.92.92,0,0,1-.48-.14.9.9,0,0,1-.29-1.25l0,0a.9.9,0,0,1,1.25-.27.92.92,0,0,1,.27,1.26A.9.9,0,0,1,407.32,46.34Zm87.67,0a.94.94,0,0,1-.78-.43.92.92,0,0,1,.29-1.26.88.88,0,0,1,1.24.28l0,0a.91.91,0,0,1-.3,1.25A.89.89,0,0,1,495,46.32ZM410.68,41.6a.89.89,0,0,1-.56-.2.91.91,0,0,1-.15-1.27l0,0a.89.89,0,0,1,1.27-.13.92.92,0,0,1,.14,1.28A.93.93,0,0,1,410.68,41.6Zm80.94,0a.92.92,0,0,1-.7-.32l0,0a.91.91,0,1,1,1.42-1.13l-.71.56.71-.56a.91.91,0,0,1-.13,1.28A.88.88,0,0,1,491.62,41.58Zm-77.07-4.31a.93.93,0,0,1-.64-.26.9.9,0,0,1,0-1.28v0a.91.91,0,1,1,.63,1.56Zm73.2,0a.91.91,0,0,1-.65-1.56.9.9,0,0,1,1.28,0h0a.91.91,0,0,1,0,1.29A.92.92,0,0,1,487.75,37.26Zm-68.88-3.85a.91.91,0,0,1-.56-1.62l.56.71-.55-.72a.9.9,0,0,1,1.27.14.89.89,0,0,1-.13,1.27l0,0A.94.94,0,0,1,418.87,33.41Zm64.55,0a.91.91,0,1,1,.55-1.63l0,0a.91.91,0,0,1-.58,1.61ZM423.61,30a.91.91,0,0,1-.49-1.67h0a.91.91,0,0,1,1,1.54A1,1,0,0,1,423.61,30Zm55.08,0a.91.91,0,1,1,.46-1.69l0,0a.9.9,0,0,1-.5,1.66Zm-50-2.8a.91.91,0,0,1-.39-1.73l.39.83-.39-.83a.91.91,0,0,1,.81,1.63l0,0A.91.91,0,0,1,428.68,27.23Zm44.93,0a.89.89,0,0,1-.39-.09h0a.91.91,0,1,1,.79-1.63l-.39.81.41-.81a.91.91,0,0,1-.4,1.73ZM434,25a.91.91,0,0,1-.3-1.77l.3.86-.29-.86a.91.91,0,1,1,.61,1.71h0A.93.93,0,0,1,434,25Zm34.21,0A1,1,0,0,1,468,25h0a.91.91,0,0,1,.62-1.71l-.31.85.31-.85a.91.91,0,0,1-.29,1.77Zm-28.62-1.6a.91.91,0,0,1-.89-.71.9.9,0,0,1,.67-1.08h0a.91.91,0,1,1,.4,1.78Zm23,0a.65.65,0,0,1-.2,0,.92.92,0,0,1-.7-1.09.9.9,0,0,1,1.08-.68h0a.91.91,0,0,1,.68,1.09A.9.9,0,0,1,462.67,23.39Zm-17.32-1a.91.91,0,0,1-.12-1.81h0a.91.91,0,1,1,.19,1.81Zm11.6,0h-.12a.92.92,0,0,1-.8-1,.89.89,0,0,1,1-.8h0a.91.91,0,0,1-.1,1.81Zm-5.8-.32a.92.92,0,0,1-.92-.91.9.9,0,0,1,.9-.91h0a.91.91,0,1,1,0,1.82Z"/></g><circle class="cls-3" cx="478.72" cy="84.91" r="0.64"/><path class="cls-5" d="M451.85,90.42h-4.64a.75.75,0,0,1-.77-.61.85.85,0,0,1,.58-1.08.89.89,0,0,1,.28,0h9.15a.8.8,0,0,1,.88.86.78.78,0,0,1-.81.86Z"/><path class="cls-5" d="M451.84,94h-2.62a.85.85,0,0,1-1-.87.87.87,0,0,1,1-.84h5.31a.88.88,0,0,1,1,.88.85.85,0,0,1-1,.83Z"/><path class="cls-6" d="M452.73,51.31c0,.76,0,1.52,0,2.28a.86.86,0,1,1-1.71,0c0-1.59,0-3.18,0-4.77a.83.83,0,0,1,.82-.84.82.82,0,0,1,.86.82c0,.82,0,1.64,0,2.46Z"/><path class="cls-7" d="M436.13,83.32a.85.85,0,0,1,.3-.66l3.17-3.22a.92.92,0,0,1,1.32-.07.88.88,0,0,1-.11,1.31l-3.21,3.24a.82.82,0,0,1-1,.2A.78.78,0,0,1,436.13,83.32Z"/><path class="cls-8" d="M467.63,83.26a.85.85,0,0,1-1.47.67c-.69-.68-1.36-1.37-2-2.06l-1.25-1.26a.87.87,0,0,1-.07-1.21.9.9,0,0,1,1.2-.09l.17.15,3.17,3.22A.85.85,0,0,1,467.63,83.26Z"/><path class="cls-9" d="M436.22,55.14a.76.76,0,0,1,.43-.78.78.78,0,0,1,.9.08,9.42,9.42,0,0,1,.72.69c.9.91,1.8,1.81,2.69,2.72a.87.87,0,0,1-.4,1.49.72.72,0,0,1-.71-.21c-1.15-1.12-2.28-2.26-3.42-3.4A.7.7,0,0,1,436.22,55.14Z"/><path class="cls-10" d="M467.53,55.11a.86.86,0,0,1-.28.7c-1.09,1.09-2.17,2.17-3.27,3.25a.79.79,0,0,1-1.23,0,.83.83,0,0,1,0-1.23l3.26-3.3a.86.86,0,0,1,1-.22A.74.74,0,0,1,467.53,55.11Z"/><path class="cls-11" d="M469.28,68.77c-.76,0-1.53,0-2.29,0a.86.86,0,0,1-.49-1.59,1,1,0,0,1,.52-.12h4.58a.86.86,0,1,1,0,1.71C470.83,68.78,470.06,68.77,469.28,68.77Z"/><path class="cls-12" d="M434.47,67.05h2.25a.87.87,0,0,1,.94.83.86.86,0,0,1-.9.88c-1.55,0-3.1,0-4.66,0a.86.86,0,1,1,0-1.71Z"/><path class="cls-13" d="M451.88,86.4h-4.54c-.28,0-.34-.07-.36-.35a13.73,13.73,0,0,0-2.11-6.41c-.85-1.38-1.87-2.64-2.73-4a11,11,0,0,1-1.71-6.8,11.37,11.37,0,0,1,4-8,11,11,0,0,1,6.12-2.68,11.14,11.14,0,0,1,9.05,3,11.38,11.38,0,0,1,3.68,9.21,10.6,10.6,0,0,1-1.64,5.07c-.87,1.44-1.93,2.75-2.82,4.18a13.37,13.37,0,0,0-2.1,6.49c0,.28-.16.25-.33.25Z"/><text class="cls-14" transform="translate(442.43 72.67) scale(0.99 1)">BGM</text><circle class="cls-15" cx="420.68" cy="30.99" r="6.08" transform="translate(378.25 450.67) rotate(-88.44)"/><path class="cls-16" d="M419.27,33.05v-1a1.66,1.66,0,0,1-.75-1.36,2.2,2.2,0,0,1,4.32,0,2,2,0,0,1-2.16,1.8,3,3,0,0,1-.42,0Z"/><path class="cls-17" d="M414.65,115.29a6.06,6.06,0,1,0,6.05-6.06A6.07,6.07,0,0,0,414.65,115.29Z"/><path class="cls-16" d="M421.14,115.32a.79.79,0,0,0,.38-.68.82.82,0,1,0-1.63,0,.79.79,0,0,0,.38.68,1.05,1.05,0,0,0-.95,1v.84h0l.06,0a4.77,4.77,0,0,0,1.41.23,3,3,0,0,0,1.24-.23l.05,0h0v-.84A1.05,1.05,0,0,0,421.14,115.32Z"/><path class="cls-16" d="M418.93,114.61a.8.8,0,0,0,.38-.68.82.82,0,1,0-1.63,0,.8.8,0,0,0,.38.68,1,1,0,0,0-.95,1v.84h0l.06,0a4.77,4.77,0,0,0,1.41.23,3,3,0,0,0,1.24-.23l.05,0h0v-.84A1,1,0,0,0,418.93,114.61Z"/><path class="cls-16" d="M423.35,114.61a.8.8,0,0,0,.38-.68.82.82,0,1,0-1.63,0,.8.8,0,0,0,.38.68,1,1,0,0,0-1,1v.84h0l.06,0a4.77,4.77,0,0,0,1.41.23,3,3,0,0,0,1.24-.23l.05,0h0v-.84A1,1,0,0,0,423.35,114.61Z"/><path class="cls-18" d="M474.74,114.81a5.95,5.95,0,1,0,5.95-6A6,6,0,0,0,474.74,114.81Z"/><polygon class="cls-16" points="480.66 112.96 481.19 114.02 482.35 114.19 481.51 115.01 481.71 116.17 480.66 115.62 479.62 116.17 479.82 115.01 478.97 114.19 480.14 114.02 480.66 112.96"/><path class="cls-19" d="M474.74,30.92a6,6,0,1,0,6-6A6,6,0,0,0,474.74,30.92Z"/><path class="cls-16" d="M482.84,29.76l-.16.28c-.06.09-.14.1-.2,0a.2.2,0,0,1,0-.21l.31-.53a.75.75,0,0,1,.07-.12c.06-.1.14-.1.21,0l.42.67a.19.19,0,0,1,0,.22.12.12,0,0,1-.18,0l-.17-.28a.11.11,0,0,1,0-.05v2.75a1,1,0,0,1-.24.68.6.6,0,0,1-.45.21c-.34,0-.68,0-1,0a.13.13,0,0,1-.14-.12.16.16,0,0,1,.08-.17h1.06a.47.47,0,0,0,.45-.45.41.41,0,0,0,0-.11V29.76Z"/><path class="cls-16" d="M479.67,28.48l-.25.05c-.11,0-.18,0-.2-.1s0-.15.13-.18l.77-.16c.1,0,.18.06.16.17s-.09.42-.14.63a.51.51,0,0,1,0,.13.15.15,0,0,1-.18.12.14.14,0,0,1-.1-.18c0-.09,0-.18.06-.29s0,0,0,0l-.93.92a.42.42,0,0,0-.13.31v.53c0,.1-.05.16-.14.16a.14.14,0,0,1-.15-.16v-.59a.56.56,0,0,1,.17-.39l1-1,0-.05Z"/><path class="cls-16" d="M479.26,31.51a.63.63,0,0,1-.63.63.64.64,0,0,1-.64-.63.64.64,0,0,1,.64-.63A.63.63,0,0,1,479.26,31.51Zm-.63-.28a.28.28,0,0,0-.28.27.28.28,0,0,0,.27.29.28.28,0,0,0,.28-.27A.28.28,0,0,0,478.63,31.23Z"/><path class="cls-16" d="M481.93,30.88a.62.62,0,0,1,.62.64.64.64,0,0,1-.65.62.63.63,0,1,1,0-1.26Zm-.29.63a.28.28,0,0,0,.28.28.28.28,0,0,0,.27-.28.28.28,0,1,0-.55,0Z"/><path class="cls-16" d="M480.27,33.76a.63.63,0,0,1-.63-.64.64.64,0,0,1,1.27,0A.63.63,0,0,1,480.27,33.76Zm-.27-.63a.28.28,0,1,0,.55,0,.29.29,0,0,0-.28-.28A.28.28,0,0,0,480,33.13Z"/><path class="cls-16" d="M480.27,30.88a.63.63,0,0,1,.64.62.64.64,0,1,1-.64-.62Zm-.27.62a.28.28,0,1,0,.28-.27A.28.28,0,0,0,480,31.5Z"/><path class="cls-16" d="M481,30c-.09-.09-.18-.17-.26-.26a.16.16,0,0,1-.05-.19.17.17,0,0,1,.28-.08l.18.18.1.11.25-.26a.18.18,0,0,1,.27,0,.18.18,0,0,1,0,.26l-.26.25.25.24a.37.37,0,0,1,.07.12.17.17,0,0,1-.08.18.15.15,0,0,1-.2,0l-.23-.21-.06-.06-.24.25a.18.18,0,0,1-.27,0c-.08-.07-.07-.17,0-.26Z"/><path class="cls-20" d="M478.63,31.23a.28.28,0,0,1,.27.29.28.28,0,0,1-.28.27.28.28,0,0,1-.27-.29A.28.28,0,0,1,478.63,31.23Z"/><path class="cls-20" d="M481.64,31.51a.28.28,0,1,1,.55,0,.28.28,0,0,1-.27.28A.28.28,0,0,1,481.64,31.51Z"/><path class="cls-20" d="M480,33.13a.28.28,0,0,1,.27-.28.29.29,0,0,1,.28.28.28.28,0,1,1-.55,0Z"/><path class="cls-20" d="M480,31.5a.28.28,0,0,1,.28-.27.28.28,0,1,1-.28.27Z"/><circle class="cls-21" cx="503.41" cy="70.1" r="5.8"/><rect class="cls-22" x="501.46" y="68.14" width="1.5" height="1.5"/><rect class="cls-23" x="503.85" y="68.14" width="1.5" height="1.5"/><rect class="cls-24" x="501.46" y="70.56" width="1.5" height="1.5"/><rect class="cls-25" x="503.85" y="70.56" width="1.5" height="1.5"/><circle class="cls-26" cx="398.47" cy="70.4" r="6.01"/><path class="cls-16" d="M400.71,71.9a.75.75,0,1,1-1.49,0,.44.44,0,0,1,0-.16l-1.71-.85a.71.71,0,0,1-.56.26.75.75,0,1,1,.56-1.24l1.7-.85a.76.76,0,0,1,0-.15.75.75,0,1,1,.75.74.78.78,0,0,1-.57-.25l-1.7.85a.39.39,0,0,1,0,.15.41.41,0,0,1,0,.16l1.7.85a.74.74,0,0,1,1.31.49Z"/><rect class="cls-27" x="-351.43" y="-189.54" width="409.83" height="525.47"/></svg>