<svg width="40px" height="40px" xmlns="http://www.w3.org/2000/svg" viewBox="0 0 39.81 39.82"><defs><style>.cop-1{fill:#faa42c;}.cop-2{fill:#fff;}</style></defs><title>Innovation.gov Icons</title><path class="cop-1" d="M0,19.91A19.91,19.91,0,1,0,19.91,0,20,20,0,0,0,0,19.91Z"/><path class="cop-2" d="M21.35,20a2.67,2.67,0,1,0-2.88,0,3.42,3.42,0,0,0-3.12,3.4v2.82l.19.06a15.68,15.68,0,0,0,4.65.75,9.69,9.69,0,0,0,4.06-.76l.18-.1h0V23.42A3.42,3.42,0,0,0,21.35,20Z"/><path class="cls-2" d="M14.09,17.68a2.67,2.67,0,1,0-2.88,0A3.43,3.43,0,0,0,8.1,21.09v2.82l.19.05a15.36,15.36,0,0,0,4.65.75A9.51,9.51,0,0,0,17,24l.18-.09h0V21.09A3.43,3.43,0,0,0,14.09,17.68Z"/><path class="cls-2" d="M28.61,17.68a2.67,2.67,0,1,0-2.88,0,3.43,3.43,0,0,0-3.12,3.41v2.82l.19.05a15.36,15.36,0,0,0,4.65.75A9.51,9.51,0,0,0,31.52,24l.18-.09h0V21.09A3.43,3.43,0,0,0,28.61,17.68Z"/></svg>