<svg width="40px" height="40px" xmlns="http://www.w3.org/2000/svg" viewBox="0 0 39.81 39.81"><defs><style>.cls-1{fill:#30485e;}.cls-2{fill:#fff;}.cls-3{fill:none;}</style></defs><title>Innovation.gov Icons</title><path class="cls-1" d="M0,19.91A19.91,19.91,0,1,0,19.91,0,20,20,0,0,0,0,19.91Z"/><path class="cls-2" d="M26.8,16.06c-.2.34-.36.64-.54.93a.36.36,0,0,1-.65.07.62.62,0,0,1,0-.69l1-1.76.22-.39c.21-.33.49-.34.69,0,.47.74.93,1.48,1.39,2.22a.6.6,0,0,1-.06.73A.36.36,0,0,1,28.3,17c-.2-.3-.38-.61-.57-.91L27.62,16v9.09a3.17,3.17,0,0,1-.78,2.25,2,2,0,0,1-1.49.7H22a.45.45,0,0,1-.46-.43.5.5,0,0,1,.25-.54A.66.66,0,0,1,22,27h3.27a1.57,1.57,0,0,0,1.49-1.49,2.07,2.07,0,0,0,0-.35V16.25S26.8,16.16,26.8,16.06Z"/><path class="cls-2" d="M16.31,11.83l-.82.18c-.36.08-.58,0-.65-.36s.1-.5.43-.57l2.53-.56a.45.45,0,0,1,.53.57c-.14.7-.29,1.4-.44,2.1l-.09.43a.52.52,0,0,1-.58.4.48.48,0,0,1-.34-.59c.05-.31.12-.62.19-1-.07.07-.12.1-.16.15-1,1-2.05,2.05-3.08,3.06a1.34,1.34,0,0,0-.42,1c0,.58,0,1.16,0,1.74A.47.47,0,0,1,13,19a.47.47,0,0,1-.49-.53c0-.64,0-1.29,0-1.94A1.8,1.8,0,0,1,13,15.19c1.05-1.07,2.12-2.12,3.19-3.17l.14-.15Z"/><path class="cls-2" d="M15,21.86a2.09,2.09,0,1,1-4.18,0,2.09,2.09,0,0,1,4.18,0Zm-2.09-.92a.91.91,0,1,0,.91.93A.92.92,0,0,0,12.87,20.94Z"/><path class="cls-2" d="M23.78,19.76a2.09,2.09,0,1,1-2.12,2A2.11,2.11,0,0,1,23.78,19.76Zm-.94,2.08a.9.9,0,0,0,.91.92.91.91,0,1,0,0-1.82A.9.9,0,0,0,22.84,21.84Z"/><path class="cls-2" d="M18.32,29.3a2.08,2.08,0,0,1-2.09-2.12,2.1,2.1,0,0,1,4.19.06A2.09,2.09,0,0,1,18.32,29.3Zm-.91-2.1a.91.91,0,0,0,.93.93.92.92,0,0,0,.9-.91,1,1,0,0,0-.92-.93A.93.93,0,0,0,17.41,27.2Z"/><path class="cls-2" d="M18.29,19.76a2.09,2.09,0,1,1-2.06,2.09A2.11,2.11,0,0,1,18.29,19.76Zm-.88,2.06a.91.91,0,0,0,.89.94.94.94,0,0,0,.94-.9.93.93,0,0,0-.9-.92A.91.91,0,0,0,17.41,21.82Z"/><path class="cls-2" d="M20.69,16.92l-.87-.85a.57.57,0,0,1-.16-.64.56.56,0,0,1,.91-.25,5.48,5.48,0,0,1,.6.58c.11.11.2.22.33.37l.84-.87a.58.58,0,0,1,.88,0,.59.59,0,0,1-.06.87l-.84.82c.28.28.56.54.82.82a.89.89,0,0,1,.23.37.56.56,0,0,1-.27.62.55.55,0,0,1-.67-.06c-.26-.23-.49-.48-.74-.72l-.21-.2c-.27.28-.53.56-.8.83a.59.59,0,1,1-.82-.83C20.12,17.47,20.4,17.21,20.69,16.92Z"/><path class="cls-3" d="M12.87,20.94a.91.91,0,1,1-.92.89A.92.92,0,0,1,12.87,20.94Z"/><path class="cls-3" d="M22.84,21.84a.9.9,0,0,1,.91-.9.91.91,0,1,1,0,1.82A.9.9,0,0,1,22.84,21.84Z"/><path class="cls-3" d="M17.41,27.2a.93.93,0,0,1,.91-.91,1,1,0,0,1,.92.93.92.92,0,0,1-.9.91A.91.91,0,0,1,17.41,27.2Z"/><path class="cls-3" d="M17.41,21.82a.91.91,0,0,1,.93-.88.93.93,0,0,1,.9.92.94.94,0,0,1-.94.9A.91.91,0,0,1,17.41,21.82Z"/></svg>