<svg width="40px" height="40px" xmlns="http://www.w3.org/2000/svg" viewBox="0 0 39.81 39.81"><defs><style>.innovation-1{fill:#4f79bc;}.innovation-2{fill:#fff;}</style></defs><title>Innovation.gov Icons</title><path class="innovation-1" d="M0,19.91A19.91,19.91,0,1,0,19.91,0,20,20,0,0,0,0,19.91Z"/><path class="innovation-2" d="M24.56,16.68a4.35,4.35,0,1,0-7.76,2.68,19.23,19.23,0,0,1,1.41,2.06v1.45h4V21.46a20.93,20.93,0,0,1,1.43-2.1A4.33,4.33,0,0,0,24.56,16.68Z"/><rect class="cls-2" x="18.22" y="23.89" width="3.99" height="0.63"/><path class="cls-2" d="M20.14,27a1.34,1.34,0,0,0,1.34-1.34H18.8A1.34,1.34,0,0,0,20.14,27Z"/></svg>